<mxfile host="app.diagrams.net" modified="2021-12-17T06:03:17.032Z" agent="5.0 (Windows NT 10.0; Win64; x64) AppleWebKit/537.36 (KHTML, like Gecko) Chrome/96.0.4664.110 Safari/537.36" etag="xikCzGHPUCFd0E0esCuR" version="15.8.3" type="github">
  <diagram id="XRmyeqqCyRAT9Xgel4UV" name="Page-1">
    <mxGraphModel dx="732" dy="780" grid="1" gridSize="10" guides="1" tooltips="1" connect="1" arrows="1" fold="1" page="1" pageScale="1" pageWidth="827" pageHeight="1169" math="0" shadow="0">
      <root>
        <mxCell id="0" />
        <mxCell id="1" parent="0" />
        <mxCell id="PF5bNkCMUWm7pHuvucZr-4" style="edgeStyle=orthogonalEdgeStyle;rounded=0;orthogonalLoop=1;jettySize=auto;html=1;entryX=0.5;entryY=0;entryDx=0;entryDy=0;" parent="1" source="PF5bNkCMUWm7pHuvucZr-1" edge="1">
          <mxGeometry relative="1" as="geometry">
            <mxPoint x="329.9999999999998" y="180" as="targetPoint" />
          </mxGeometry>
        </mxCell>
        <mxCell id="PF5bNkCMUWm7pHuvucZr-1" value="开始" style="ellipse;whiteSpace=wrap;html=1;" parent="1" vertex="1">
          <mxGeometry x="270" y="70" width="120" height="60" as="geometry" />
        </mxCell>
        <mxCell id="a9de4RtlP8X0HB9mmePT-30" style="edgeStyle=orthogonalEdgeStyle;rounded=0;orthogonalLoop=1;jettySize=auto;html=1;entryX=0.5;entryY=0;entryDx=0;entryDy=0;" edge="1" parent="1" source="a9de4RtlP8X0HB9mmePT-27" target="a9de4RtlP8X0HB9mmePT-28">
          <mxGeometry relative="1" as="geometry" />
        </mxCell>
        <mxCell id="a9de4RtlP8X0HB9mmePT-27" value="部门名非空校验" style="rhombus;whiteSpace=wrap;html=1;" vertex="1" parent="1">
          <mxGeometry x="290" y="180" width="80" height="80" as="geometry" />
        </mxCell>
        <mxCell id="a9de4RtlP8X0HB9mmePT-31" style="edgeStyle=orthogonalEdgeStyle;rounded=0;orthogonalLoop=1;jettySize=auto;html=1;entryX=0.5;entryY=0;entryDx=0;entryDy=0;" edge="1" parent="1" source="a9de4RtlP8X0HB9mmePT-28" target="a9de4RtlP8X0HB9mmePT-29">
          <mxGeometry relative="1" as="geometry" />
        </mxCell>
        <mxCell id="a9de4RtlP8X0HB9mmePT-28" value="部门重名校验" style="rhombus;whiteSpace=wrap;html=1;" vertex="1" parent="1">
          <mxGeometry x="290" y="320" width="80" height="80" as="geometry" />
        </mxCell>
        <mxCell id="a9de4RtlP8X0HB9mmePT-34" style="edgeStyle=orthogonalEdgeStyle;rounded=0;orthogonalLoop=1;jettySize=auto;html=1;entryX=0.5;entryY=0;entryDx=0;entryDy=0;" edge="1" parent="1" source="a9de4RtlP8X0HB9mmePT-29" target="a9de4RtlP8X0HB9mmePT-33">
          <mxGeometry relative="1" as="geometry" />
        </mxCell>
        <mxCell id="a9de4RtlP8X0HB9mmePT-29" value="部门层级不超过5级" style="rhombus;whiteSpace=wrap;html=1;" vertex="1" parent="1">
          <mxGeometry x="290" y="460" width="80" height="80" as="geometry" />
        </mxCell>
        <mxCell id="a9de4RtlP8X0HB9mmePT-37" style="edgeStyle=orthogonalEdgeStyle;rounded=0;orthogonalLoop=1;jettySize=auto;html=1;entryX=0.5;entryY=0;entryDx=0;entryDy=0;" edge="1" parent="1" source="a9de4RtlP8X0HB9mmePT-33" target="a9de4RtlP8X0HB9mmePT-35">
          <mxGeometry relative="1" as="geometry" />
        </mxCell>
        <mxCell id="a9de4RtlP8X0HB9mmePT-52" style="edgeStyle=orthogonalEdgeStyle;rounded=0;orthogonalLoop=1;jettySize=auto;html=1;entryX=0.5;entryY=0;entryDx=0;entryDy=0;" edge="1" parent="1" source="a9de4RtlP8X0HB9mmePT-33" target="a9de4RtlP8X0HB9mmePT-47">
          <mxGeometry relative="1" as="geometry" />
        </mxCell>
        <mxCell id="a9de4RtlP8X0HB9mmePT-33" value="部门添加操作" style="whiteSpace=wrap;html=1;" vertex="1" parent="1">
          <mxGeometry x="270" y="585" width="120" height="60" as="geometry" />
        </mxCell>
        <mxCell id="a9de4RtlP8X0HB9mmePT-48" style="edgeStyle=orthogonalEdgeStyle;rounded=0;orthogonalLoop=1;jettySize=auto;html=1;entryX=0.5;entryY=0;entryDx=0;entryDy=0;" edge="1" parent="1" source="a9de4RtlP8X0HB9mmePT-35" target="a9de4RtlP8X0HB9mmePT-36">
          <mxGeometry relative="1" as="geometry" />
        </mxCell>
        <mxCell id="a9de4RtlP8X0HB9mmePT-59" style="edgeStyle=orthogonalEdgeStyle;rounded=0;orthogonalLoop=1;jettySize=auto;html=1;entryX=0.5;entryY=0;entryDx=0;entryDy=0;jumpStyle=arc;" edge="1" parent="1" source="a9de4RtlP8X0HB9mmePT-35" target="a9de4RtlP8X0HB9mmePT-43">
          <mxGeometry relative="1" as="geometry">
            <Array as="points">
              <mxPoint x="930" y="750" />
            </Array>
          </mxGeometry>
        </mxCell>
        <mxCell id="a9de4RtlP8X0HB9mmePT-35" value="部门角色校验" style="rhombus;whiteSpace=wrap;html=1;" vertex="1" parent="1">
          <mxGeometry x="90" y="710" width="80" height="80" as="geometry" />
        </mxCell>
        <mxCell id="a9de4RtlP8X0HB9mmePT-44" style="edgeStyle=orthogonalEdgeStyle;rounded=0;orthogonalLoop=1;jettySize=auto;html=1;entryX=0.5;entryY=0;entryDx=0;entryDy=0;" edge="1" parent="1" source="a9de4RtlP8X0HB9mmePT-36" target="a9de4RtlP8X0HB9mmePT-41">
          <mxGeometry relative="1" as="geometry" />
        </mxCell>
        <mxCell id="a9de4RtlP8X0HB9mmePT-36" value="部门角色新增操作" style="whiteSpace=wrap;html=1;" vertex="1" parent="1">
          <mxGeometry x="70" y="860" width="120" height="60" as="geometry" />
        </mxCell>
        <mxCell id="a9de4RtlP8X0HB9mmePT-49" style="edgeStyle=orthogonalEdgeStyle;rounded=0;orthogonalLoop=1;jettySize=auto;html=1;" edge="1" parent="1" source="a9de4RtlP8X0HB9mmePT-41" target="a9de4RtlP8X0HB9mmePT-42">
          <mxGeometry relative="1" as="geometry">
            <Array as="points">
              <mxPoint x="380" y="1090" />
              <mxPoint x="380" y="1090" />
            </Array>
          </mxGeometry>
        </mxCell>
        <mxCell id="a9de4RtlP8X0HB9mmePT-56" style="edgeStyle=orthogonalEdgeStyle;rounded=0;orthogonalLoop=1;jettySize=auto;html=1;entryX=0;entryY=0.5;entryDx=0;entryDy=0;" edge="1" parent="1" source="a9de4RtlP8X0HB9mmePT-41" target="a9de4RtlP8X0HB9mmePT-43">
          <mxGeometry relative="1" as="geometry" />
        </mxCell>
        <mxCell id="a9de4RtlP8X0HB9mmePT-57" value="是" style="edgeLabel;html=1;align=center;verticalAlign=middle;resizable=0;points=[];" vertex="1" connectable="0" parent="a9de4RtlP8X0HB9mmePT-56">
          <mxGeometry x="0.1561" y="3" relative="1" as="geometry">
            <mxPoint as="offset" />
          </mxGeometry>
        </mxCell>
        <mxCell id="a9de4RtlP8X0HB9mmePT-41" value="有异常" style="rhombus;whiteSpace=wrap;html=1;" vertex="1" parent="1">
          <mxGeometry x="340" y="990" width="80" height="80" as="geometry" />
        </mxCell>
        <mxCell id="a9de4RtlP8X0HB9mmePT-42" value="流程结束&lt;br&gt;正常返回" style="ellipse;whiteSpace=wrap;html=1;" vertex="1" parent="1">
          <mxGeometry x="310" y="1109" width="120" height="60" as="geometry" />
        </mxCell>
        <mxCell id="a9de4RtlP8X0HB9mmePT-43" value="流程结束&lt;br&gt;返回异常" style="ellipse;whiteSpace=wrap;html=1;" vertex="1" parent="1">
          <mxGeometry x="870" y="1000" width="120" height="60" as="geometry" />
        </mxCell>
        <mxCell id="a9de4RtlP8X0HB9mmePT-54" style="edgeStyle=orthogonalEdgeStyle;rounded=0;orthogonalLoop=1;jettySize=auto;html=1;entryX=0.5;entryY=0;entryDx=0;entryDy=0;" edge="1" parent="1" source="a9de4RtlP8X0HB9mmePT-47" target="a9de4RtlP8X0HB9mmePT-53">
          <mxGeometry relative="1" as="geometry" />
        </mxCell>
        <mxCell id="a9de4RtlP8X0HB9mmePT-47" value="部门下用户校验" style="rhombus;whiteSpace=wrap;html=1;" vertex="1" parent="1">
          <mxGeometry x="550" y="660" width="80" height="80" as="geometry" />
        </mxCell>
        <mxCell id="a9de4RtlP8X0HB9mmePT-55" style="edgeStyle=orthogonalEdgeStyle;rounded=0;orthogonalLoop=1;jettySize=auto;html=1;" edge="1" parent="1" source="a9de4RtlP8X0HB9mmePT-53">
          <mxGeometry relative="1" as="geometry">
            <mxPoint x="379.9999999999998" y="980" as="targetPoint" />
          </mxGeometry>
        </mxCell>
        <mxCell id="a9de4RtlP8X0HB9mmePT-53" value="部门下用户新增操作以及设置部门leader" style="whiteSpace=wrap;html=1;" vertex="1" parent="1">
          <mxGeometry x="530" y="860" width="120" height="60" as="geometry" />
        </mxCell>
        <mxCell id="a9de4RtlP8X0HB9mmePT-58" value="否" style="text;html=1;align=center;verticalAlign=middle;resizable=0;points=[];autosize=1;strokeColor=none;fillColor=none;" vertex="1" parent="1">
          <mxGeometry x="375" y="1080" width="30" height="20" as="geometry" />
        </mxCell>
      </root>
    </mxGraphModel>
  </diagram>
</mxfile>
